<svg xmlns="http://www.w3.org/2000/svg" viewBox="0 0 128 128">
  <defs>
    <linearGradient id="g" x1="0" x2="0" y1="0" y2="1">
      <stop offset="0" stop-color="#f7c873"/>
      <stop offset="1" stop-color="#d18a3b"/>
    </linearGradient>
  </defs>
  <g fill="none" stroke="none">
    <!-- loaf base -->
    <path d="M18 64c0-22 18-40 40-40h12c22 0 40 18 40 40v12c0 13-11 24-24 24H42C29 100 18 89 18 76V64z" fill="url(#g)"/>
    <!-- top cuts -->
    <path d="M46 40c8 0 8 8 0 8s-8-8 0-8zm20 0c8 0 8 8 0 8s-8-8 0-8zm20 0c8 0 8 8 0 8s-8-8 0-8z" fill="#fff" opacity=".7"/>
    <!-- subtle outline -->
    <path d="M18 64c0-22 18-40 40-40h12c22 0 40 18 40 40v12c0 13-11 24-24 24H42C29 100 18 89 18 76V64z"
          fill="none" stroke="#6a3a1a" stroke-width="3" opacity=".35"/>
  </g>
</svg>
